# Blender v2.82 (sub 7) OBJ File: 'ast.blend'
# www.blender.org
mtllib ast.mtl
o Plane
v -0.519909 -0.000500 -0.290336
v 0.504084 -0.000500 -0.451752
v -0.485094 -0.000500 -0.307853
v 1.124427 -0.000500 -1.295338
v 0.009495 -0.000500 -0.656005
v -0.354905 -0.000500 -0.431288
v 0.367565 -0.000500 -0.925031
v -0.424747 -0.000500 -0.367988
v 0.193278 -0.000500 -0.817421
v -0.215433 -0.000500 -0.519909
v 0.557678 -0.000500 -1.029477
v -0.936845 -0.000500 0.209737
v -1.319390 -0.000500 0.738295
v -0.652417 -0.000500 -0.138415
v -1.132865 -0.000500 -0.139997
v -1.178652 -0.000500 -0.170856
v -1.036438 -0.000500 0.007967
v -1.266428 -0.000500 -0.172043
v -1.302404 -0.000500 -0.145734
v -1.217793 -0.000500 -0.185692
v -1.366285 -0.000500 0.027254
v -1.361827 -0.000500 0.202369
v -1.332762 -0.000500 -0.106715
v -0.795368 -0.000500 0.765198
v 0.164530 -0.000500 0.074433
v -1.483074 -0.000500 0.993870
v -1.634546 -0.000500 1.817962
v -1.408023 -0.000500 1.755255
v -1.560392 -0.000500 1.159045
v -1.731982 -0.000500 1.442611
v -1.692759 -0.000500 1.782207
v -1.657265 -0.000500 1.273925
v -1.548187 -0.000500 1.924287
v -1.476523 -0.000500 1.835024
v -1.572376 -0.000500 1.836309
v -1.609339 -0.000500 2.008482
v -1.575598 -0.000500 2.007529
v -1.598770 -0.000500 1.955628
v -1.142841 -0.000500 1.253896
v -0.973852 -0.000500 1.000052
v -1.311829 -0.000500 1.536226
v 1.298503 -0.000500 -1.017553
v 1.235203 -0.000500 -1.249814
v 1.244698 -0.000500 -0.848593
v 1.197223 -0.000500 -1.285236
v 1.289008 -0.000500 -0.928326
v 1.279513 -0.000500 -1.128936
v 1.156078 -0.000500 -0.740375
v 1.070622 -0.000500 -0.711587
v 1.107020 -0.000500 -0.710156
v 0.955099 -0.000500 -0.671872
v 0.549528 -0.000500 -0.283610
v 0.537884 -0.000500 -0.419904
v 0.497872 -0.000500 -0.166307
v 0.267901 -0.000500 0.074334
v 0.349654 -0.000500 -0.003259
v 0.208303 -0.000500 0.085461
v -0.160333 -0.000500 0.179274
v 0.123952 -0.000500 0.088873
v -0.264212 -0.000500 0.244355
v -0.667468 -0.000500 0.623464
v -0.307589 -0.000500 0.255086
v -0.460183 -0.000500 0.430160
v -0.485094 0.642897 -0.307853
v -0.519909 0.642897 -0.290336
v 0.537884 0.642897 -0.419904
v 0.504084 0.642897 -0.451752
v 1.197223 0.642897 -1.285236
v 1.124427 0.642897 -1.295338
v -0.424747 0.642897 -0.367988
v 0.193278 0.642897 -0.817421
v 0.009495 0.642897 -0.656005
v -0.215433 0.642897 -0.519909
v -0.354905 0.642897 -0.431288
v 0.557678 0.642897 -1.029477
v 0.367565 0.642897 -0.925031
v -0.652417 0.642897 -0.138415
v -0.936845 0.642897 0.209737
v -1.361827 0.642897 0.202369
v -1.319390 0.642897 0.738295
v -1.036438 0.642897 0.007967
v -1.132865 0.642897 -0.139997
v -1.178652 0.642897 -0.170856
v -1.217793 0.642897 -0.185692
v -1.266428 0.642897 -0.172043
v -1.302404 0.642897 -0.145734
v -1.332762 0.642897 -0.106715
v -1.366285 0.642897 0.027254
v -0.973852 0.642897 1.000052
v -0.795368 0.642897 0.765198
v 0.123952 0.642897 0.088873
v 0.164530 0.642897 0.074433
v -1.483074 0.642897 0.993870
v -1.692759 0.642897 1.782207
v -1.634546 0.642897 1.817962
v -1.476523 0.642897 1.835024
v -1.408023 0.642897 1.755255
v -1.560392 0.642897 1.159045
v -1.657265 0.642897 1.273925
v -1.731982 0.642897 1.442611
v -1.575598 0.642897 2.007529
v -1.548187 0.642897 1.924287
v -1.572376 0.642897 1.836309
v -1.598770 0.642897 1.955628
v -1.609339 0.642897 2.008482
v -1.311829 0.642897 1.536226
v -1.142841 0.642897 1.253896
v 1.289008 0.642897 -0.928326
v 1.298503 0.642897 -1.017553
v 1.279513 0.642897 -1.128936
v 1.235203 0.642897 -1.249814
v 1.156078 0.642897 -0.740375
v 1.244698 0.642897 -0.848593
v 1.107020 0.642897 -0.710156
v 0.955099 0.642897 -0.671872
v 1.070622 0.642897 -0.711587
v 0.497872 0.642897 -0.166307
v 0.549528 0.642897 -0.283610
v 0.349654 0.642897 -0.003259
v 0.208303 0.642897 0.085461
v 0.267901 0.642897 0.074334
v -0.264212 0.642897 0.244355
v -0.160333 0.642897 0.179274
v -0.307589 0.642897 0.255086
v -0.667468 0.642897 0.623464
v -0.460183 0.642897 0.430160
vt 1.000000 0.125000
vt 1.000000 0.250000
vt 1.000000 0.750000
vt 1.000000 0.875000
vt 1.000000 0.375000
vt 1.000000 0.500000
vt 1.000000 0.625000
vt 1.000000 1.000000
vt 1.000000 0.093750
vt 0.875000 1.000000
vt 1.000000 0.062500
vt 0.750000 1.000000
vt 1.000000 0.031250
vt 0.625000 1.000000
vt 1.000000 0.000000
vt 0.500000 1.000000
vt 0.953125 0.000000
vt 0.968750 0.000000
vt 0.984375 0.000000
vt 0.375000 1.000000
vt 0.949219 0.000000
vt 0.250000 1.000000
vt 0.945312 0.000000
vt 0.125000 1.000000
vt 0.906250 0.000000
vt 0.921875 0.000000
vt 0.000000 1.000000
vt 0.890625 0.000000
vt 0.000000 0.000000
vt 0.886719 0.000000
vt 0.250000 0.000000
vt 0.884766 0.000000
vt 0.500000 0.000000
vt 0.882812 0.000000
vt 0.937500 0.000000
vt 0.941406 0.000000
vt 0.562500 0.000000
vt 0.625000 0.000000
vt 0.742188 0.000000
vt 0.746094 0.000000
vt 0.687500 0.000000
vt 0.738281 0.000000
vt 0.703125 0.000000
vt 0.718750 0.000000
vt 0.734375 0.000000
vt 0.750000 0.000000
vt 0.875000 0.000000
vt 0.871094 0.000000
vt 0.812500 0.000000
vt 0.828125 0.000000
vt 0.867188 0.000000
vt 0.832031 0.000000
vt 0.863281 0.000000
vt 0.835938 0.000000
vt 0.859375 0.000000
vt 0.855469 0.000000
vt 0.839844 0.000000
vt 0.843750 0.000000
vt 0.847656 0.000000
vt 0.851562 0.000000
vt 0.848633 0.000000
vt 0.850586 0.000000
vt 0.849609 0.000000
vt 0.941406 0.000000
vt 0.945312 0.000000
vt 0.812500 0.000000
vt 0.828125 0.000000
vt 1.000000 0.875000
vt 1.000000 1.000000
vt 0.949219 0.000000
vt 0.832031 0.000000
vt 0.835938 0.000000
vt 0.125000 1.000000
vt 0.000000 1.000000
vt 0.937500 0.000000
vt 0.839844 0.000000
vt 0.625000 1.000000
vt 0.500000 1.000000
vt 0.890625 0.000000
vt 0.906250 0.000000
vt 0.375000 1.000000
vt 0.250000 1.000000
vt 0.921875 0.000000
vt 0.850586 0.000000
vt 0.851562 0.000000
vt 0.875000 1.000000
vt 0.750000 1.000000
vt 0.886719 0.000000
vt 0.855469 0.000000
vt 0.882812 0.000000
vt 0.884766 0.000000
vt 0.843750 0.000000
vt 0.847656 0.000000
vt 0.848633 0.000000
vt 0.849609 0.000000
vt 0.875000 0.000000
vt 0.250000 0.000000
vt 0.500000 0.000000
vt 0.863281 0.000000
vt 0.867188 0.000000
vt 0.746094 0.000000
vt 0.750000 0.000000
vt 0.871094 0.000000
vt 0.000000 0.000000
vt 0.859375 0.000000
vt 0.562500 0.000000
vt 0.625000 0.000000
vt 1.000000 0.375000
vt 1.000000 0.500000
vt 0.687500 0.000000
vt 1.000000 0.625000
vt 1.000000 0.750000
vt 1.000000 0.125000
vt 1.000000 0.250000
vt 0.703125 0.000000
vt 0.718750 0.000000
vt 0.734375 0.000000
vt 0.738281 0.000000
vt 0.742188 0.000000
vt 1.000000 0.093750
vt 1.000000 0.031250
vt 1.000000 0.062500
vt 1.000000 0.000000
vt 0.953125 0.000000
vt 0.968750 0.000000
vt 0.984375 0.000000
vn 0.0000 1.0000 0.0000
vn -0.0311 0.0000 0.9995
vn 0.4546 0.0000 0.8907
vn 0.3460 0.6485 0.6780
vn -0.0233 0.6619 0.7492
vn -0.8758 0.0000 -0.4827
vn -0.8423 0.0000 -0.5389
vn -0.5686 0.7378 -0.3638
vn -0.6317 0.6926 -0.3482
vn 0.4297 0.0000 -0.9029
vn -0.1498 0.0000 -0.9887
vn -0.1140 0.6484 -0.7527
vn 0.3283 0.6451 -0.6899
vn 0.7147 0.0000 0.6995
vn 0.5111 0.6989 0.5003
vn -0.8479 0.0000 -0.5301
vn -0.9886 0.0000 -0.1504
vn -0.7492 0.6524 -0.1140
vn -0.6243 0.6766 -0.3903
vn -0.6889 0.0000 -0.7248
vn -0.5850 0.0000 -0.8110
vn -0.3906 0.7445 -0.5415
vn -0.4907 0.7018 -0.5163
vn 0.0475 0.0000 0.9988
vn 0.0298 0.7786 0.6268
vn -0.8432 0.0000 0.5375
vn -0.6612 0.6207 0.4214
vn -0.5947 0.0000 -0.8039
vn -0.5911 0.0000 -0.8066
vn -0.4055 0.7275 -0.5534
vn -0.4312 0.6887 -0.5828
vn 0.3904 0.0000 0.9206
vn 0.4203 0.0000 0.9074
vn 0.2843 0.7365 0.6138
vn 0.2887 0.6732 0.6807
vn -0.5270 0.0000 -0.8498
vn -0.6061 0.0000 -0.7953
vn -0.4396 0.6884 -0.5769
vn -0.3739 0.7046 -0.6030
vn 0.3192 0.0000 0.9477
vn 0.2269 0.7033 0.6737
vn 0.5976 0.0000 0.8018
vn 0.8789 0.0000 0.4770
vn 0.5818 0.7495 0.3158
vn 0.4790 0.5978 0.6428
vn -0.4533 0.0000 -0.8913
vn -0.5036 0.0000 -0.8639
vn -0.3589 0.7014 -0.6157
vn -0.3237 0.7000 -0.6365
vn 0.5211 0.0000 0.8535
vn 0.3251 0.7815 0.5324
vn 0.7693 0.0000 0.6388
vn 0.5411 0.7108 0.4493
vn 0.7129 0.0000 0.7013
vn 0.7189 0.0000 0.6951
vn 0.5164 0.6956 0.4993
vn 0.4970 0.7169 0.4889
vn -0.4067 0.0000 0.9135
vn -0.8612 0.0000 0.5082
vn -0.3819 0.8963 0.2253
vn -0.2987 0.6786 0.6709
vn -0.9785 0.0000 -0.2060
vn -0.7643 0.0000 0.6448
vn -0.6299 0.5664 0.5314
vn -0.6941 0.7048 -0.1462
vn 0.7700 0.0000 0.6381
vn 0.5369 0.7167 0.4450
vn -0.7641 0.0000 -0.6451
vn 0.1130 0.0000 -0.9936
vn 0.0355 0.9494 -0.3120
vn -0.5430 0.7035 -0.4584
vn 0.8885 0.0000 0.4587
vn 0.8455 0.0000 0.5340
vn 0.5932 0.7125 0.3747
vn 0.6153 0.7215 0.3176
vn -0.9986 0.0000 0.0522
vn -0.9701 0.0000 -0.2428
vn -0.5993 0.7863 -0.1500
vn -0.7121 0.7011 0.0372
vn 0.8147 0.0000 0.5799
vn 0.5702 0.7142 0.4059
vn -0.6130 0.0000 -0.7901
vn -0.4571 0.6662 -0.5892
vn 0.8463 0.0000 0.5326
vn 0.6241 0.6754 0.3927
vn 0.8688 0.0000 -0.4952
vn 0.7125 0.0000 -0.7016
vn 0.5322 0.6650 -0.5240
vn 0.6255 0.6939 -0.3565
vn 0.9533 0.0000 0.3018
vn 0.9995 0.0000 -0.0314
vn 0.7351 0.6775 -0.0231
vn 0.7121 0.6649 0.2254
vn 0.4597 0.0000 -0.8881
vn 0.3362 0.6821 -0.6494
vn 0.9663 0.0000 -0.2572
vn 0.8332 0.0000 -0.5528
vn 0.6272 0.6583 -0.4161
vn 0.7020 0.6872 -0.1868
vn 0.6581 0.0000 0.7529
vn 0.8272 0.0000 0.5619
vn 0.6006 0.6875 0.4080
vn 0.4876 0.6717 0.5578
vn 0.0443 0.0000 -0.9990
vn -0.4372 0.0000 -0.8993
vn -0.3249 0.6691 -0.6683
vn 0.0339 0.6430 -0.7651
vn -0.6965 0.0000 -0.7176
vn -0.5125 0.6772 -0.5280
vn -0.8990 0.0000 -0.4378
vn -0.9940 0.0000 -0.1096
vn -0.7306 0.6779 -0.0806
vn -0.6727 0.6634 -0.3276
vn 0.2536 0.0000 0.9673
vn 0.1934 0.6470 0.7375
vn 0.3825 0.0000 0.9239
vn 0.1454 0.0000 0.9893
vn 0.0960 0.7510 0.6533
vn 0.2650 0.7212 0.6400
vn 0.9886 0.0000 0.1502
vn 0.3416 0.9384 0.0519
vn 0.8385 0.0000 0.5449
vn 0.9864 0.0000 0.1640
vn 0.7450 0.6554 0.1239
vn 0.6204 0.6726 0.4032
vn 0.9004 0.0000 -0.4351
vn 0.6956 0.6349 -0.3362
usemtl None
s off
f 112/1/1 113/2/1 111/3/1 68/4/1
f 108/5/1 109/6/1 110/7/1 111/3/1 113/2/1
f 68/4/1 69/8/1 114/9/1 112/1/1
f 69/8/1 75/10/1 116/11/1 114/9/1
f 75/10/1 76/12/1 115/13/1 116/11/1
f 76/12/1 71/14/1 67/15/1 115/13/1
f 71/14/1 72/16/1 117/17/1 118/18/1
f 66/19/1 67/15/1 71/14/1 118/18/1
f 72/16/1 73/20/1 119/21/1 117/17/1
f 73/20/1 74/22/1 121/23/1 119/21/1
f 74/22/1 70/24/1 123/25/1 91/26/1
f 70/24/1 64/27/1 122/28/1 123/25/1
f 64/27/1 65/29/1 124/30/1 122/28/1
f 65/29/1 77/31/1 126/32/1 124/30/1
f 77/31/1 78/33/1 125/34/1 126/32/1
f 121/23/1 74/22/1 92/35/1 120/36/1
f 91/26/1 92/35/1 74/22/1
f 81/37/1 82/38/1 88/39/1 79/40/1
f 82/38/1 83/41/1 87/42/1 88/39/1
f 84/43/1 85/44/1 86/45/1 83/41/1
f 87/42/1 83/41/1 86/45/1
f 79/40/1 80/46/1 78/33/1 81/37/1
f 125/34/1 78/33/1 80/46/1 90/47/1
f 89/48/1 90/47/1 80/46/1 93/49/1
f 93/49/1 98/50/1 107/51/1 89/48/1
f 98/50/1 99/52/1 106/53/1 107/51/1
f 99/52/1 100/54/1 97/55/1 106/53/1
f 96/56/1 97/55/1 100/54/1 94/57/1
f 94/57/1 95/58/1 103/59/1 96/56/1
f 102/60/1 96/56/1 103/59/1 104/61/1
f 101/62/1 102/60/1 104/61/1 105/63/1
s 1
f 57/64/2 55/65/3 121/23/4 120/36/5
f 26/66/6 29/67/7 98/50/8 93/49/9
f 45/68/10 4/69/11 69/8/12 68/4/13
f 55/65/3 56/70/14 119/21/15 121/23/4
f 32/71/16 30/72/17 100/54/18 99/52/19
f 8/73/20 3/74/21 64/27/22 70/24/23
f 25/75/24 57/64/2 120/36/5 92/35/25
f 30/72/17 31/76/26 94/57/27 100/54/18
f 9/77/28 5/78/29 72/16/30 71/14/31
f 60/79/32 58/80/33 123/25/34 122/28/35
f 29/67/7 32/71/16 99/52/19 98/50/8
f 10/81/36 6/82/37 74/22/38 73/20/39
f 58/80/33 59/83/40 91/26/41 123/25/34
f 37/84/42 33/85/43 102/60/44 101/62/45
f 11/86/46 7/87/47 76/12/48 75/10/49
f 62/88/50 60/79/32 122/28/35 124/30/51
f 33/85/43 34/89/52 96/56/53 102/60/44
f 6/82/37 8/73/20 70/24/23 74/22/38
f 61/90/54 63/91/55 126/32/56 125/34/57
f 27/92/58 35/93/59 103/59/60 95/58/61
f 7/87/47 9/77/28 71/14/31 76/12/48
f 63/91/55 62/88/50 124/30/51 126/32/56
f 38/94/62 36/95/63 105/63/64 104/61/65
f 5/78/29 10/81/36 73/20/39 72/16/30
f 24/96/66 61/90/54 125/34/57 90/47/67
f 36/95/63 37/84/42 101/62/45 105/63/64
f 4/69/11 11/86/46 75/10/49 69/8/12
f 35/93/59 38/94/62 104/61/65 103/59/60
f 14/97/68 12/98/69 78/33/70 77/31/71
f 41/99/72 39/100/73 107/51/74 106/53/75
f 22/101/76 13/102/77 80/46/78 79/40/79
f 39/100/73 40/103/80 89/48/81 107/51/74
f 1/104/82 14/97/68 77/31/71 65/29/83
f 28/105/84 41/99/72 106/53/75 97/55/85
f 17/106/86 15/107/87 82/38/88 81/37/89
f 46/108/90 42/109/91 109/6/92 108/5/93
f 15/107/87 16/110/94 83/41/95 82/38/88
f 47/111/96 43/112/97 111/3/98 110/7/99
f 12/98/69 17/106/86 81/37/89 78/33/70
f 48/113/100 44/114/101 113/2/102 112/1/103
f 20/115/104 18/116/105 85/44/106 84/43/107
f 43/112/97 45/68/10 68/4/13 111/3/98
f 18/116/105 19/117/108 86/45/109 85/44/106
f 44/114/101 46/108/90 108/5/93 113/2/102
f 16/110/94 20/115/104 84/43/107 83/41/95
f 42/109/91 47/111/96 110/7/99 109/6/92
f 23/118/110 21/119/111 88/39/112 87/42/113
f 50/120/114 48/113/100 112/1/103 114/9/115
f 21/119/111 22/101/76 79/40/79 88/39/112
f 51/121/116 49/122/117 116/11/118 115/13/119
f 19/117/108 23/118/110 87/42/113 86/45/109
f 49/122/117 50/120/114 114/9/115 116/11/118
f 40/103/80 24/96/66 90/47/67 89/48/81
f 2/123/120 51/121/116 115/13/119 67/15/121
f 59/83/40 25/75/24 92/35/25 91/26/41
f 54/124/122 52/125/123 118/18/124 117/17/125
f 13/102/77 26/66/6 93/49/9 80/46/78
f 52/125/123 53/126/126 66/19/127 118/18/124
f 31/76/26 27/92/58 95/58/61 94/57/27
f 3/74/21 1/104/82 65/29/83 64/27/22
f 56/70/14 54/124/122 117/17/125 119/21/15
f 34/89/52 28/105/84 97/55/85 96/56/53
f 53/126/126 2/123/120 67/15/121 66/19/127
